<svg id="visual" viewBox="0 0 900 600" width="900" height="600" xmlns="http://www.w3.org/2000/svg" xmlns:xlink="http://www.w3.org/1999/xlink" version="1.1"><g stroke-width="1" stroke-linejoin="bevel"><path d="M455 322.7L452 344.9L463 355.6Z" fill="#4a012b" stroke="#4a012b"></path><path d="M463 355.6L475 361L455 322.7Z" fill="#230c29" stroke="#230c29"></path><path d="M436 368.6L472 372.9L463 355.6Z" fill="#570027" stroke="#570027"></path><path d="M463 355.6L472 372.9L475 361Z" fill="#72000d" stroke="#72000d"></path><path d="M472 372.9L500 371.7L475 361Z" fill="#0e051d" stroke="#0e051d"></path><path d="M475 361L505 296.1L455 322.7Z" fill="#620021" stroke="#620021"></path><path d="M500 371.7L508 364.6L475 361Z" fill="#180a24" stroke="#180a24"></path><path d="M399 333.9L436 368.6L452 344.9Z" fill="#570027" stroke="#570027"></path><path d="M452 344.9L436 368.6L463 355.6Z" fill="#300b2c" stroke="#300b2c"></path><path d="M508 364.6L505 296.1L475 361Z" fill="#300b2c" stroke="#300b2c"></path><path d="M480 401.7L505 385L500 371.7Z" fill="#6b0019" stroke="#6b0019"></path><path d="M500 371.7L505 385L508 364.6Z" fill="#300b2c" stroke="#300b2c"></path><path d="M480 401.7L500 371.7L472 372.9Z" fill="#6b0019" stroke="#6b0019"></path><path d="M436 368.6L480 401.7L472 372.9Z" fill="#6b0019" stroke="#6b0019"></path><path d="M405 276.3L404 311.7L455 322.7Z" fill="#180a24" stroke="#180a24"></path><path d="M455 322.7L399 333.9L452 344.9Z" fill="#300b2c" stroke="#300b2c"></path><path d="M404 311.7L399 333.9L455 322.7Z" fill="#6b0019" stroke="#6b0019"></path><path d="M505 296.1L463 262.4L455 322.7Z" fill="#6b0019" stroke="#6b0019"></path><path d="M553 298.7L541 298L508 364.6Z" fill="#3d072d" stroke="#3d072d"></path><path d="M508 364.6L541 298L505 296.1Z" fill="#000015" stroke="#000015"></path><path d="M505 296.1L532 267.1L463 262.4Z" fill="#300b2c" stroke="#300b2c"></path><path d="M399 333.9L392 372L436 368.6Z" fill="#180a24" stroke="#180a24"></path><path d="M436 368.6L381 397.9L480 401.7Z" fill="#180a24" stroke="#180a24"></path><path d="M463 262.4L405 276.3L455 322.7Z" fill="#180a24" stroke="#180a24"></path><path d="M404 311.7L344 313.1L399 333.9Z" fill="#180a24" stroke="#180a24"></path><path d="M326 363.7L381 397.9L392 372Z" fill="#000015" stroke="#000015"></path><path d="M591 383.7L553 298.7L508 364.6Z" fill="#6b0019" stroke="#6b0019"></path><path d="M541 298L536 272.1L505 296.1Z" fill="#570027" stroke="#570027"></path><path d="M553 298.7L536 272.1L541 298Z" fill="#620021" stroke="#620021"></path><path d="M536 272.1L532 267.1L505 296.1Z" fill="#570027" stroke="#570027"></path><path d="M532 435.9L542 416.4L505 385Z" fill="#6b0019" stroke="#6b0019"></path><path d="M505 385L542 416.4L508 364.6Z" fill="#6b0019" stroke="#6b0019"></path><path d="M344 313.1L392 372L399 333.9Z" fill="#300b2c" stroke="#300b2c"></path><path d="M392 372L381 397.9L436 368.6Z" fill="#72000d" stroke="#72000d"></path><path d="M480 401.7L532 435.9L505 385Z" fill="#0e051d" stroke="#0e051d"></path><path d="M532 267.1L455 222.3L463 262.4Z" fill="#4a012b" stroke="#4a012b"></path><path d="M463 262.4L455 222.3L405 276.3Z" fill="#230c29" stroke="#230c29"></path><path d="M540 459.3L532 435.9L470 488.1Z" fill="#230c29" stroke="#230c29"></path><path d="M393 234.3L373 268L405 276.3Z" fill="#3d072d" stroke="#3d072d"></path><path d="M405 276.3L373 268L404 311.7Z" fill="#230c29" stroke="#230c29"></path><path d="M568 433.4L584 393.4L542 416.4Z" fill="#620021" stroke="#620021"></path><path d="M542 416.4L584 393.4L508 364.6Z" fill="#180a24" stroke="#180a24"></path><path d="M455 222.3L393 234.3L405 276.3Z" fill="#0e051d" stroke="#0e051d"></path><path d="M584 393.4L591 383.7L508 364.6Z" fill="#000015" stroke="#000015"></path><path d="M311 357L344 313.1L315 269.1Z" fill="#6b0019" stroke="#6b0019"></path><path d="M373 268L344 313.1L404 311.7Z" fill="#620021" stroke="#620021"></path><path d="M591 383.7L605 308.1L553 298.7Z" fill="#180a24" stroke="#180a24"></path><path d="M600 251.3L563 226.4L536 272.1Z" fill="#570027" stroke="#570027"></path><path d="M536 272.1L563 226.4L532 267.1Z" fill="#180a24" stroke="#180a24"></path><path d="M532 267.1L556 220.6L455 222.3Z" fill="#0e051d" stroke="#0e051d"></path><path d="M532 435.9L568 433.4L542 416.4Z" fill="#300b2c" stroke="#300b2c"></path><path d="M665 382.4L620 366.6L673 421.4Z" fill="#570027" stroke="#570027"></path><path d="M470 488.1L532 435.9L480 401.7Z" fill="#620021" stroke="#620021"></path><path d="M532 435.9L540 459.3L568 433.4Z" fill="#72000d" stroke="#72000d"></path><path d="M604 270.1L536 272.1L553 298.7Z" fill="#72000d" stroke="#72000d"></path><path d="M563 226.4L556 220.6L532 267.1Z" fill="#620021" stroke="#620021"></path><path d="M344 313.1L326 363.7L392 372Z" fill="#4a012b" stroke="#4a012b"></path><path d="M605 308.1L604 270.1L553 298.7Z" fill="#3d072d" stroke="#3d072d"></path><path d="M620 366.6L621 319.9L605 308.1Z" fill="#3d072d" stroke="#3d072d"></path><path d="M605 308.1L622 279L604 270.1Z" fill="#6b0019" stroke="#6b0019"></path><path d="M620 366.6L605 308.1L591 383.7Z" fill="#230c29" stroke="#230c29"></path><path d="M620 366.6L591 383.7L673 421.4Z" fill="#570027" stroke="#570027"></path><path d="M389 469.1L480 401.7L381 397.9Z" fill="#620021" stroke="#620021"></path><path d="M449 495.1L470 488.1L480 401.7Z" fill="#3d072d" stroke="#3d072d"></path><path d="M326 363.7L338 409.7L381 397.9Z" fill="#620021" stroke="#620021"></path><path d="M603 253L600 251.3L604 270.1Z" fill="#6b0019" stroke="#6b0019"></path><path d="M604 270.1L600 251.3L536 272.1Z" fill="#0e051d" stroke="#0e051d"></path><path d="M563 226.4L613 209.6L556 220.6Z" fill="#180a24" stroke="#180a24"></path><path d="M622 279L603 253L604 270.1Z" fill="#300b2c" stroke="#300b2c"></path><path d="M600 251.3L613 209.6L563 226.4Z" fill="#3d072d" stroke="#3d072d"></path><path d="M338 409.7L389 469.1L381 397.9Z" fill="#000015" stroke="#000015"></path><path d="M434 175.3L419 188.1L455 222.3Z" fill="#180a24" stroke="#180a24"></path><path d="M455 222.3L419 188.1L393 234.3Z" fill="#72000d" stroke="#72000d"></path><path d="M321 271.3L344 313.1L373 268Z" fill="#4a012b" stroke="#4a012b"></path><path d="M556 220.6L457 178.7L455 222.3Z" fill="#230c29" stroke="#230c29"></path><path d="M389 469.1L449 495.1L480 401.7Z" fill="#000015" stroke="#000015"></path><path d="M631 292.7L622 279L605 308.1Z" fill="#620021" stroke="#620021"></path><path d="M631 292.7L605 308.1L621 319.9Z" fill="#000015" stroke="#000015"></path><path d="M344 313.1L311 357L326 363.7Z" fill="#6b0019" stroke="#6b0019"></path><path d="M326 363.7L316 399.6L338 409.7Z" fill="#3d072d" stroke="#3d072d"></path><path d="M321 271.3L373 268L351 192.4Z" fill="#180a24" stroke="#180a24"></path><path d="M315 269.1L321 271.3L351 192.4Z" fill="#620021" stroke="#620021"></path><path d="M457 178.7L434 175.3L455 222.3Z" fill="#300b2c" stroke="#300b2c"></path><path d="M351 192.4L373 268L393 234.3Z" fill="#3d072d" stroke="#3d072d"></path><path d="M649 342L631 292.7L621 319.9Z" fill="#4a012b" stroke="#4a012b"></path><path d="M311 357L316 399.6L326 363.7Z" fill="#4a012b" stroke="#4a012b"></path><path d="M338 409.7L366 477.3L389 469.1Z" fill="#570027" stroke="#570027"></path><path d="M405 175.7L393 234.3L419 188.1Z" fill="#4a012b" stroke="#4a012b"></path><path d="M321 271.3L315 269.1L344 313.1Z" fill="#000015" stroke="#000015"></path><path d="M434 175.3L405 175.7L419 188.1Z" fill="#4a012b" stroke="#4a012b"></path><path d="M322 441.9L366 477.3L338 409.7Z" fill="#620021" stroke="#620021"></path><path d="M389 469.1L369 495.6L449 495.1Z" fill="#000015" stroke="#000015"></path><path d="M494 525.1L521 506.6L470 488.1Z" fill="#3d072d" stroke="#3d072d"></path><path d="M470 488.1L521 506.6L540 459.3Z" fill="#620021" stroke="#620021"></path><path d="M540 459.3L610 468.3L568 433.4Z" fill="#230c29" stroke="#230c29"></path><path d="M665 382.4L649 342L620 366.6Z" fill="#6b0019" stroke="#6b0019"></path><path d="M610 468.3L584 393.4L568 433.4Z" fill="#230c29" stroke="#230c29"></path><path d="M620 366.6L649 342L621 319.9Z" fill="#620021" stroke="#620021"></path><path d="M316 399.6L322 441.9L338 409.7Z" fill="#6b0019" stroke="#6b0019"></path><path d="M420 129.9L390 171.4L405 175.7Z" fill="#0e051d" stroke="#0e051d"></path><path d="M405 175.7L390 171.4L393 234.3Z" fill="#3d072d" stroke="#3d072d"></path><path d="M521 506.6L541 507.3L540 459.3Z" fill="#230c29" stroke="#230c29"></path><path d="M315 458.4L317 441.9L267 451.6Z" fill="#180a24" stroke="#180a24"></path><path d="M316 399.6L317 441.9L322 441.9Z" fill="#230c29" stroke="#230c29"></path><path d="M322 441.9L315 458.4L366 477.3Z" fill="#4a012b" stroke="#4a012b"></path><path d="M390 171.4L351 192.4L393 234.3Z" fill="#300b2c" stroke="#300b2c"></path><path d="M308 515.4L369 495.6L366 477.3Z" fill="#620021" stroke="#620021"></path><path d="M366 477.3L369 495.6L389 469.1Z" fill="#000015" stroke="#000015"></path><path d="M449 495.1L494 525.1L470 488.1Z" fill="#0e051d" stroke="#0e051d"></path><path d="M603 253L613 209.6L600 251.3Z" fill="#570027" stroke="#570027"></path><path d="M458 142.4L445 146.3L457 178.7Z" fill="#3d072d" stroke="#3d072d"></path><path d="M678 247.9L613 209.6L603 253Z" fill="#0e051d" stroke="#0e051d"></path><path d="M623 193.4L613 209.6L683 210.4Z" fill="#620021" stroke="#620021"></path><path d="M603 253L622 279L678 247.9Z" fill="#620021" stroke="#620021"></path><path d="M508 548.3L494 525.1L425 564.1Z" fill="#570027" stroke="#570027"></path><path d="M521 506.6L508 537.4L541 507.3Z" fill="#3d072d" stroke="#3d072d"></path><path d="M593 514.1L610 468.3L540 459.3Z" fill="#000015" stroke="#000015"></path><path d="M434 175.3L420 129.9L405 175.7Z" fill="#180a24" stroke="#180a24"></path><path d="M457 178.7L445 146.3L434 175.3Z" fill="#3d072d" stroke="#3d072d"></path><path d="M458 142.4L457 178.7L495 112.6Z" fill="#570027" stroke="#570027"></path><path d="M577 156.7L457 178.7L556 220.6Z" fill="#0e051d" stroke="#0e051d"></path><path d="M267 451.6L317 441.9L316 399.6Z" fill="#300b2c" stroke="#300b2c"></path><path d="M317 441.9L315 458.4L322 441.9Z" fill="#3d072d" stroke="#3d072d"></path><path d="M673 421.4L591 383.7L584 393.4Z" fill="#180a24" stroke="#180a24"></path><path d="M649 342L687 313.9L631 292.7Z" fill="#72000d" stroke="#72000d"></path><path d="M494 525.1L508 537.4L521 506.6Z" fill="#4a012b" stroke="#4a012b"></path><path d="M541 507.3L593 514.1L540 459.3Z" fill="#4a012b" stroke="#4a012b"></path><path d="M508 548.3L508 537.4L494 525.1Z" fill="#230c29" stroke="#230c29"></path><path d="M665 382.4L677 361.7L649 342Z" fill="#570027" stroke="#570027"></path><path d="M613 209.6L577 156.7L556 220.6Z" fill="#000015" stroke="#000015"></path><path d="M678 247.9L622 279L631 292.7Z" fill="#0e051d" stroke="#0e051d"></path><path d="M613 209.6L623 193.4L577 156.7Z" fill="#0e051d" stroke="#0e051d"></path><path d="M421 110.7L420 129.9L445 146.3Z" fill="#3d072d" stroke="#3d072d"></path><path d="M445 146.3L420 129.9L434 175.3Z" fill="#3d072d" stroke="#3d072d"></path><path d="M390 171.4L338 125.6L351 192.4Z" fill="#6b0019" stroke="#6b0019"></path><path d="M421 110.7L445 146.3L458 142.4Z" fill="#3d072d" stroke="#3d072d"></path><path d="M425 564.1L494 525.1L449 495.1Z" fill="#620021" stroke="#620021"></path><path d="M508 537.4L543 554.4L541 507.3Z" fill="#620021" stroke="#620021"></path><path d="M543 554.4L593 514.1L541 507.3Z" fill="#0e051d" stroke="#0e051d"></path><path d="M610 468.3L673 421.4L584 393.4Z" fill="#6b0019" stroke="#6b0019"></path><path d="M665 382.4L692 372.9L677 361.7Z" fill="#300b2c" stroke="#300b2c"></path><path d="M677 361.7L687 313.9L649 342Z" fill="#4a012b" stroke="#4a012b"></path><path d="M699 501.6L673 421.4L610 468.3Z" fill="#300b2c" stroke="#300b2c"></path><path d="M677 361.7L723 319.1L687 313.9Z" fill="#180a24" stroke="#180a24"></path><path d="M267 233L259 271.3L315 269.1Z" fill="#180a24" stroke="#180a24"></path><path d="M315 269.1L259 271.3L311 357Z" fill="#6b0019" stroke="#6b0019"></path><path d="M311 357L254 391.9L316 399.6Z" fill="#230c29" stroke="#230c29"></path><path d="M267 233L315 269.1L351 192.4Z" fill="#3d072d" stroke="#3d072d"></path><path d="M586 117.3L572 137.4L577 156.7Z" fill="#300b2c" stroke="#300b2c"></path><path d="M577 156.7L495 112.6L457 178.7Z" fill="#000015" stroke="#000015"></path><path d="M308 515.4L354 526.3L369 495.6Z" fill="#000015" stroke="#000015"></path><path d="M369 495.6L425 564.1L449 495.1Z" fill="#72000d" stroke="#72000d"></path><path d="M673 421.4L692 372.9L665 382.4Z" fill="#620021" stroke="#620021"></path><path d="M238 342.6L254 391.9L311 357Z" fill="#0e051d" stroke="#0e051d"></path><path d="M315 458.4L308 515.4L366 477.3Z" fill="#6b0019" stroke="#6b0019"></path><path d="M572 137.4L495 112.6L577 156.7Z" fill="#300b2c" stroke="#300b2c"></path><path d="M687 313.9L678 247.9L631 292.7Z" fill="#230c29" stroke="#230c29"></path><path d="M623 193.4L586 117.3L577 156.7Z" fill="#3d072d" stroke="#3d072d"></path><path d="M495 112.6L468 107.9L458 142.4Z" fill="#3d072d" stroke="#3d072d"></path><path d="M266 228.1L267 233L351 192.4Z" fill="#6b0019" stroke="#6b0019"></path><path d="M543 560.3L543 554.4L508 548.3Z" fill="#0e051d" stroke="#0e051d"></path><path d="M508 548.3L543 554.4L508 537.4Z" fill="#72000d" stroke="#72000d"></path><path d="M468 107.9L421 110.7L458 142.4Z" fill="#0e051d" stroke="#0e051d"></path><path d="M420 129.9L338 125.6L390 171.4Z" fill="#72000d" stroke="#72000d"></path><path d="M294 159.3L266 228.1L351 192.4Z" fill="#3d072d" stroke="#3d072d"></path><path d="M267 233L179 224.3L259 271.3Z" fill="#0e051d" stroke="#0e051d"></path><path d="M354 526.3L425 564.1L369 495.6Z" fill="#4a012b" stroke="#4a012b"></path><path d="M629 556.3L618 516.6L593 514.1Z" fill="#000015" stroke="#000015"></path><path d="M593 514.1L618 516.6L610 468.3Z" fill="#000015" stroke="#000015"></path><path d="M259 271.3L238 342.6L311 357Z" fill="#4a012b" stroke="#4a012b"></path><path d="M224 338.6L238 342.6L259 271.3Z" fill="#180a24" stroke="#180a24"></path><path d="M224 443.3L267 451.6L254 391.9Z" fill="#72000d" stroke="#72000d"></path><path d="M254 391.9L267 451.6L316 399.6Z" fill="#4a012b" stroke="#4a012b"></path><path d="M493 600L543 560.3L508 548.3Z" fill="#230c29" stroke="#230c29"></path><path d="M543 554.4L581 569.1L593 514.1Z" fill="#6b0019" stroke="#6b0019"></path><path d="M723 319.1L711 301.7L687 313.9Z" fill="#0e051d" stroke="#0e051d"></path><path d="M687 313.9L715 268L678 247.9Z" fill="#3d072d" stroke="#3d072d"></path><path d="M289 505.4L308 515.4L315 458.4Z" fill="#180a24" stroke="#180a24"></path><path d="M411 600L425 600L425 564.1Z" fill="#000015" stroke="#000015"></path><path d="M692 225.1L683 210.4L678 247.9Z" fill="#72000d" stroke="#72000d"></path><path d="M678 247.9L683 210.4L613 209.6Z" fill="#230c29" stroke="#230c29"></path><path d="M715 268L692 225.1L678 247.9Z" fill="#180a24" stroke="#180a24"></path><path d="M177 329.9L224 338.6L259 271.3Z" fill="#3d072d" stroke="#3d072d"></path><path d="M238 342.6L224 338.6L254 391.9Z" fill="#6b0019" stroke="#6b0019"></path><path d="M676 135.3L586 117.3L623 193.4Z" fill="#180a24" stroke="#180a24"></path><path d="M572 137.4L556 59.7L495 112.6Z" fill="#620021" stroke="#620021"></path><path d="M446 69.7L426 85.6L468 107.9Z" fill="#3d072d" stroke="#3d072d"></path><path d="M275 502.3L289 505.4L315 458.4Z" fill="#0e051d" stroke="#0e051d"></path><path d="M421 110.7L338 125.6L420 129.9Z" fill="#4a012b" stroke="#4a012b"></path><path d="M338 125.6L294 159.3L351 192.4Z" fill="#72000d" stroke="#72000d"></path><path d="M692 372.9L723 319.1L677 361.7Z" fill="#6b0019" stroke="#6b0019"></path><path d="M711 301.7L715 268L687 313.9Z" fill="#6b0019" stroke="#6b0019"></path><path d="M739 326.7L723 319.1L692 372.9Z" fill="#300b2c" stroke="#300b2c"></path><path d="M739 326.7L715 268L711 301.7Z" fill="#570027" stroke="#570027"></path><path d="M468 107.9L426 85.6L421 110.7Z" fill="#180a24" stroke="#180a24"></path><path d="M421 110.7L365 63.9L338 125.6Z" fill="#620021" stroke="#620021"></path><path d="M446 69.7L468 107.9L495 112.6Z" fill="#620021" stroke="#620021"></path><path d="M267 451.6L275 502.3L315 458.4Z" fill="#0e051d" stroke="#0e051d"></path><path d="M289 505.4L283 521.1L308 515.4Z" fill="#570027" stroke="#570027"></path><path d="M341 600L351 600L354 526.3Z" fill="#0e051d" stroke="#0e051d"></path><path d="M257 502.3L275 502.3L267 451.6Z" fill="#570027" stroke="#570027"></path><path d="M556 600L581 569.1L543 560.3Z" fill="#3d072d" stroke="#3d072d"></path><path d="M543 560.3L581 569.1L543 554.4Z" fill="#180a24" stroke="#180a24"></path><path d="M275 502.3L283 521.1L289 505.4Z" fill="#0e051d" stroke="#0e051d"></path><path d="M425 600L493 600L425 564.1Z" fill="#0e051d" stroke="#0e051d"></path><path d="M425 564.1L493 600L508 548.3Z" fill="#6b0019" stroke="#6b0019"></path><path d="M448 57.6L446 69.7L495 112.6Z" fill="#230c29" stroke="#230c29"></path><path d="M426 85.6L365 63.9L421 110.7Z" fill="#570027" stroke="#570027"></path><path d="M411 600L425 564.1L351 600Z" fill="#6b0019" stroke="#6b0019"></path><path d="M765 396.6L739 326.7L692 372.9Z" fill="#6b0019" stroke="#6b0019"></path><path d="M723 319.1L739 326.7L711 301.7Z" fill="#620021" stroke="#620021"></path><path d="M765 396.6L692 372.9L673 421.4Z" fill="#4a012b" stroke="#4a012b"></path><path d="M178 387.9L224 443.3L254 391.9Z" fill="#180a24" stroke="#180a24"></path><path d="M275 502.3L257 502.3L283 521.1Z" fill="#6b0019" stroke="#6b0019"></path><path d="M351 600L425 564.1L354 526.3Z" fill="#6b0019" stroke="#6b0019"></path><path d="M581 569.1L629 556.3L593 514.1Z" fill="#570027" stroke="#570027"></path><path d="M618 516.6L699 501.6L610 468.3Z" fill="#180a24" stroke="#180a24"></path><path d="M584 600L629 556.3L581 569.1Z" fill="#620021" stroke="#620021"></path><path d="M235 505.1L257 502.3L267 451.6Z" fill="#72000d" stroke="#72000d"></path><path d="M294 159.3L256 169.4L266 228.1Z" fill="#3d072d" stroke="#3d072d"></path><path d="M164 325.1L177 329.9L179 224.3Z" fill="#72000d" stroke="#72000d"></path><path d="M252 152.4L256 169.4L294 159.3Z" fill="#4a012b" stroke="#4a012b"></path><path d="M493 600L556 600L543 560.3Z" fill="#620021" stroke="#620021"></path><path d="M556 59.7L448 57.6L495 112.6Z" fill="#000015" stroke="#000015"></path><path d="M446 69.7L448 57.6L426 85.6Z" fill="#6b0019" stroke="#6b0019"></path><path d="M240 129.6L252 152.4L266 101.9Z" fill="#6b0019" stroke="#6b0019"></path><path d="M673 540.4L699 501.6L618 516.6Z" fill="#72000d" stroke="#72000d"></path><path d="M296 84.7L294 159.3L338 125.6Z" fill="#180a24" stroke="#180a24"></path><path d="M177 329.9L259 271.3L179 224.3Z" fill="#72000d" stroke="#72000d"></path><path d="M683 210.4L676 135.3L623 193.4Z" fill="#3d072d" stroke="#3d072d"></path><path d="M586 117.3L556 59.7L572 137.4Z" fill="#4a012b" stroke="#4a012b"></path><path d="M706 152.7L676 135.3L683 210.4Z" fill="#72000d" stroke="#72000d"></path><path d="M725 176.1L683 210.4L692 225.1Z" fill="#3d072d" stroke="#3d072d"></path><path d="M738 228L692 225.1L715 268Z" fill="#4a012b" stroke="#4a012b"></path><path d="M556 600L584 600L581 569.1Z" fill="#3d072d" stroke="#3d072d"></path><path d="M629 556.3L673 540.4L618 516.6Z" fill="#570027" stroke="#570027"></path><path d="M663 600L673 540.4L629 556.3Z" fill="#180a24" stroke="#180a24"></path><path d="M790 241.3L738 228L715 268Z" fill="#6b0019" stroke="#6b0019"></path><path d="M610 81.9L556 59.7L586 117.3Z" fill="#0e051d" stroke="#0e051d"></path><path d="M643 86.6L610 81.9L586 117.3Z" fill="#300b2c" stroke="#300b2c"></path><path d="M341 600L354 526.3L308 515.4Z" fill="#6b0019" stroke="#6b0019"></path><path d="M341 600L308 515.4L259 552.4Z" fill="#230c29" stroke="#230c29"></path><path d="M224 443.3L235 505.1L267 451.6Z" fill="#72000d" stroke="#72000d"></path><path d="M257 502.3L259 552.4L283 521.1Z" fill="#300b2c" stroke="#300b2c"></path><path d="M401 17.7L365 63.9L426 85.6Z" fill="#230c29" stroke="#230c29"></path><path d="M365 63.9L325 82.9L338 125.6Z" fill="#570027" stroke="#570027"></path><path d="M259 552.4L308 515.4L283 521.1Z" fill="#230c29" stroke="#230c29"></path><path d="M179 224.3L266 228.1L180 211Z" fill="#0e051d" stroke="#0e051d"></path><path d="M224 338.6L178 387.9L254 391.9Z" fill="#3d072d" stroke="#3d072d"></path><path d="M224 443.3L181 464.6L235 505.1Z" fill="#570027" stroke="#570027"></path><path d="M177 329.9L178 387.9L224 338.6Z" fill="#300b2c" stroke="#300b2c"></path><path d="M725 176.1L706 152.7L683 210.4Z" fill="#620021" stroke="#620021"></path><path d="M676 135.3L643 86.6L586 117.3Z" fill="#0e051d" stroke="#0e051d"></path><path d="M774 457.1L765 396.6L673 421.4Z" fill="#570027" stroke="#570027"></path><path d="M739 326.7L800 296.9L715 268Z" fill="#230c29" stroke="#230c29"></path><path d="M738 228L725 176.1L692 225.1Z" fill="#6b0019" stroke="#6b0019"></path><path d="M722 136.6L687 125.6L706 152.7Z" fill="#000015" stroke="#000015"></path><path d="M706 152.7L687 125.6L676 135.3Z" fill="#180a24" stroke="#180a24"></path><path d="M178 387.9L188 441.7L224 443.3Z" fill="#72000d" stroke="#72000d"></path><path d="M232 549.3L259 552.4L235 505.1Z" fill="#3d072d" stroke="#3d072d"></path><path d="M235 505.1L259 552.4L257 502.3Z" fill="#300b2c" stroke="#300b2c"></path><path d="M687 125.6L643 86.6L676 135.3Z" fill="#72000d" stroke="#72000d"></path><path d="M557 -2.1L521 0L556 59.7Z" fill="#6b0019" stroke="#6b0019"></path><path d="M240 129.6L229 152.6L252 152.4Z" fill="#300b2c" stroke="#300b2c"></path><path d="M252 152.4L229 152.6L256 169.4Z" fill="#4a012b" stroke="#4a012b"></path><path d="M304 55.7L296 84.7L325 82.9Z" fill="#180a24" stroke="#180a24"></path><path d="M325 82.9L296 84.7L338 125.6Z" fill="#0e051d" stroke="#0e051d"></path><path d="M179 224.3L267 233L266 228.1Z" fill="#6b0019" stroke="#6b0019"></path><path d="M177 329.9L146 349.7L178 387.9Z" fill="#300b2c" stroke="#300b2c"></path><path d="M139 465.6L181 464.6L188 441.7Z" fill="#300b2c" stroke="#300b2c"></path><path d="M474 0L448 29.6L494 0Z" fill="#000015" stroke="#000015"></path><path d="M448 57.6L401 17.7L426 85.6Z" fill="#570027" stroke="#570027"></path><path d="M365 63.9L304 55.7L325 82.9Z" fill="#4a012b" stroke="#4a012b"></path><path d="M765 396.6L779 357L739 326.7Z" fill="#3d072d" stroke="#3d072d"></path><path d="M730 137.9L706 152.7L725 176.1Z" fill="#620021" stroke="#620021"></path><path d="M266 101.9L252 152.4L294 159.3Z" fill="#230c29" stroke="#230c29"></path><path d="M181 464.6L221 520.4L235 505.1Z" fill="#0e051d" stroke="#0e051d"></path><path d="M296 84.7L266 101.9L294 159.3Z" fill="#570027" stroke="#570027"></path><path d="M240 129.6L226 143.3L229 152.6Z" fill="#72000d" stroke="#72000d"></path><path d="M180 211L266 228.1L188 184.6Z" fill="#180a24" stroke="#180a24"></path><path d="M192 136.4L226 143.3L240 129.6Z" fill="#620021" stroke="#620021"></path><path d="M779 357L784 332.1L739 326.7Z" fill="#620021" stroke="#620021"></path><path d="M266 228.1L256 169.4L188 184.6Z" fill="#6b0019" stroke="#6b0019"></path><path d="M811 404.6L786 338.6L779 357Z" fill="#570027" stroke="#570027"></path><path d="M779 357L786 338.6L784 332.1Z" fill="#230c29" stroke="#230c29"></path><path d="M188 184.6L256 169.4L229 152.6Z" fill="#0e051d" stroke="#0e051d"></path><path d="M135 325L151 336.7L164 325.1Z" fill="#0e051d" stroke="#0e051d"></path><path d="M139 465.6L188 441.7L178 387.9Z" fill="#620021" stroke="#620021"></path><path d="M188 441.7L181 464.6L224 443.3Z" fill="#6b0019" stroke="#6b0019"></path><path d="M425 600L473 656.1L493 600Z" fill="#72000d" stroke="#72000d"></path><path d="M493 600L473 656.1L556 600Z" fill="#6b0019" stroke="#6b0019"></path><path d="M556 600L622 625.1L584 600Z" fill="#0e051d" stroke="#0e051d"></path><path d="M411 600L473 656.1L425 600Z" fill="#4a012b" stroke="#4a012b"></path><path d="M351 600L473 656.1L411 600Z" fill="#000015" stroke="#000015"></path><path d="M341 600L473 656.1L351 600Z" fill="#3d072d" stroke="#3d072d"></path><path d="M138 301.1L164 325.1L179 224.3Z" fill="#000015" stroke="#000015"></path><path d="M164 325.1L151 336.7L177 329.9Z" fill="#6b0019" stroke="#6b0019"></path><path d="M221 520.4L232 549.3L235 505.1Z" fill="#570027" stroke="#570027"></path><path d="M259 552.4L206 600L341 600Z" fill="#000015" stroke="#000015"></path><path d="M181 529.4L232 549.3L221 520.4Z" fill="#570027" stroke="#570027"></path><path d="M764 197.6L725 176.1L738 228Z" fill="#300b2c" stroke="#300b2c"></path><path d="M730 137.9L722 136.6L706 152.7Z" fill="#570027" stroke="#570027"></path><path d="M687 125.6L728 74.4L643 86.6Z" fill="#4a012b" stroke="#4a012b"></path><path d="M192 136.4L188 184.6L229 152.6Z" fill="#000015" stroke="#000015"></path><path d="M785 225.4L764 197.6L738 228Z" fill="#570027" stroke="#570027"></path><path d="M800 296.9L739 326.7L784 332.1Z" fill="#000015" stroke="#000015"></path><path d="M135 325L146 349.7L151 336.7Z" fill="#620021" stroke="#620021"></path><path d="M151 336.7L146 349.7L177 329.9Z" fill="#180a24" stroke="#180a24"></path><path d="M584 600L622 625.1L629 556.3Z" fill="#230c29" stroke="#230c29"></path><path d="M769 510.4L774 457.1L699 501.6Z" fill="#0e051d" stroke="#0e051d"></path><path d="M699 501.6L774 457.1L673 421.4Z" fill="#230c29" stroke="#230c29"></path><path d="M473 656.1L622 625.1L556 600Z" fill="#000015" stroke="#000015"></path><path d="M759 164.6L730 137.9L725 176.1Z" fill="#72000d" stroke="#72000d"></path><path d="M722 136.6L727 129.9L687 125.6Z" fill="#300b2c" stroke="#300b2c"></path><path d="M710 576.3L699 501.6L673 540.4Z" fill="#000015" stroke="#000015"></path><path d="M765 396.6L811 404.6L779 357Z" fill="#570027" stroke="#570027"></path><path d="M448 29.6L401 17.7L448 57.6Z" fill="#620021" stroke="#620021"></path><path d="M296 84.7L257 75.7L266 101.9Z" fill="#570027" stroke="#570027"></path><path d="M622 625.1L663 600L629 556.3Z" fill="#570027" stroke="#570027"></path><path d="M312 9.9L304 55.7L365 63.9Z" fill="#3d072d" stroke="#3d072d"></path><path d="M266 101.9L257 75.7L240 129.6Z" fill="#620021" stroke="#620021"></path><path d="M226 143.3L192 136.4L229 152.6Z" fill="#620021" stroke="#620021"></path><path d="M746 118.7L727 129.9L730 137.9Z" fill="#3d072d" stroke="#3d072d"></path><path d="M730 137.9L727 129.9L722 136.6Z" fill="#230c29" stroke="#230c29"></path><path d="M814 277.1L800 296.9L851 292.9Z" fill="#000015" stroke="#000015"></path><path d="M786 338.6L800 296.9L784 332.1Z" fill="#300b2c" stroke="#300b2c"></path><path d="M800 296.9L790 241.3L715 268Z" fill="#230c29" stroke="#230c29"></path><path d="M764 197.6L759 164.6L725 176.1Z" fill="#230c29" stroke="#230c29"></path><path d="M790 241.3L785 225.4L738 228Z" fill="#4a012b" stroke="#4a012b"></path><path d="M818 463.7L786 447.3L774 457.1Z" fill="#72000d" stroke="#72000d"></path><path d="M774 457.1L786 447.3L765 396.6Z" fill="#0e051d" stroke="#0e051d"></path><path d="M138 301.1L179 224.3L90 279Z" fill="#72000d" stroke="#72000d"></path><path d="M109 306.3L138 301.1L90 279Z" fill="#230c29" stroke="#230c29"></path><path d="M802 159.3L759 164.6L764 197.6Z" fill="#72000d" stroke="#72000d"></path><path d="M494 0L448 29.6L448 57.6Z" fill="#72000d" stroke="#72000d"></path><path d="M448 29.6L446 0L401 17.7Z" fill="#000015" stroke="#000015"></path><path d="M494 0L448 57.6L556 59.7Z" fill="#300b2c" stroke="#300b2c"></path><path d="M138 301.1L135 325L164 325.1Z" fill="#230c29" stroke="#230c29"></path><path d="M139 465.6L181 529.4L181 464.6Z" fill="#570027" stroke="#570027"></path><path d="M521 0L494 0L556 59.7Z" fill="#230c29" stroke="#230c29"></path><path d="M556 59.7L586 0L557 -2.1Z" fill="#0e051d" stroke="#0e051d"></path><path d="M474 0L446 0L448 29.6Z" fill="#230c29" stroke="#230c29"></path><path d="M401 17.7L362 0L365 63.9Z" fill="#000015" stroke="#000015"></path><path d="M304 55.7L257 75.7L296 84.7Z" fill="#230c29" stroke="#230c29"></path><path d="M701 600L710 576.3L663 600Z" fill="#0e051d" stroke="#0e051d"></path><path d="M663 600L710 576.3L673 540.4Z" fill="#570027" stroke="#570027"></path><path d="M556 59.7L610 81.9L586 0Z" fill="#0e051d" stroke="#0e051d"></path><path d="M170 104.6L192 136.4L240 129.6Z" fill="#570027" stroke="#570027"></path><path d="M188 184.6L102 180.1L180 211Z" fill="#620021" stroke="#620021"></path><path d="M710 576.3L769 510.4L699 501.6Z" fill="#72000d" stroke="#72000d"></path><path d="M814 277.1L810 265.3L800 296.9Z" fill="#230c29" stroke="#230c29"></path><path d="M800 296.9L810 265.3L790 241.3Z" fill="#300b2c" stroke="#300b2c"></path><path d="M883 206.3L848 167.4L785 225.4Z" fill="#000015" stroke="#000015"></path><path d="M802 159.3L746 118.7L759 164.6Z" fill="#3d072d" stroke="#3d072d"></path><path d="M818 463.7L811 404.6L786 447.3Z" fill="#0e051d" stroke="#0e051d"></path><path d="M786 447.3L811 404.6L765 396.6Z" fill="#3d072d" stroke="#3d072d"></path><path d="M846 283L814 277.1L851 292.9Z" fill="#0e051d" stroke="#0e051d"></path><path d="M139 465.6L178 387.9L146 349.7Z" fill="#4a012b" stroke="#4a012b"></path><path d="M181 464.6L181 529.4L221 520.4Z" fill="#570027" stroke="#570027"></path><path d="M232 549.3L206 600L259 552.4Z" fill="#72000d" stroke="#72000d"></path><path d="M586 0L610 81.9L660 7.7Z" fill="#3d072d" stroke="#3d072d"></path><path d="M521 0L557 -2.1L494 0Z" fill="#620021" stroke="#620021"></path><path d="M494 0L557 -2.1L474 0Z" fill="#180a24" stroke="#180a24"></path><path d="M474 0L557 -2.1L446 0Z" fill="#000015" stroke="#000015"></path><path d="M622 625.1L701 600L663 600Z" fill="#180a24" stroke="#180a24"></path><path d="M710 576.3L744 587.3L769 510.4Z" fill="#000015" stroke="#000015"></path><path d="M754 95.9L746 118.7L784 99.6Z" fill="#230c29" stroke="#230c29"></path><path d="M759 164.6L746 118.7L730 137.9Z" fill="#300b2c" stroke="#300b2c"></path><path d="M727 129.9L728 74.4L687 125.6Z" fill="#72000d" stroke="#72000d"></path><path d="M757 637.1L704 600L701 600Z" fill="#300b2c" stroke="#300b2c"></path><path d="M701 600L704 600L710 576.3Z" fill="#0e051d" stroke="#0e051d"></path><path d="M296 -1.1L362 0L446 0Z" fill="#72000d" stroke="#72000d"></path><path d="M446 0L362 0L401 17.7Z" fill="#620021" stroke="#620021"></path><path d="M304 55.7L233 50.9L257 75.7Z" fill="#230c29" stroke="#230c29"></path><path d="M660 7.7L610 81.9L643 86.6Z" fill="#180a24" stroke="#180a24"></path><path d="M75 459.4L139 465.6L146 349.7Z" fill="#72000d" stroke="#72000d"></path><path d="M757 637.1L718 600L704 600Z" fill="#3d072d" stroke="#3d072d"></path><path d="M704 600L718 600L710 576.3Z" fill="#230c29" stroke="#230c29"></path><path d="M296 -1.1L337 0L362 0Z" fill="#0e051d" stroke="#0e051d"></path><path d="M362 0L337 0L365 63.9Z" fill="#180a24" stroke="#180a24"></path><path d="M257 75.7L223 50.9L240 129.6Z" fill="#300b2c" stroke="#300b2c"></path><path d="M337 0L312 9.9L365 63.9Z" fill="#6b0019" stroke="#6b0019"></path><path d="M757 637.1L721 600L718 600Z" fill="#0e051d" stroke="#0e051d"></path><path d="M718 600L721 600L710 576.3Z" fill="#620021" stroke="#620021"></path><path d="M138 301.1L109 306.3L135 325Z" fill="#000015" stroke="#000015"></path><path d="M135 325L82 307L146 349.7Z" fill="#570027" stroke="#570027"></path><path d="M90 279L179 224.3L88 199.6Z" fill="#0e051d" stroke="#0e051d"></path><path d="M754 95.9L728 74.4L746 118.7Z" fill="#180a24" stroke="#180a24"></path><path d="M746 118.7L728 74.4L727 129.9Z" fill="#570027" stroke="#570027"></path><path d="M854 519.1L818 463.7L769 510.4Z" fill="#72000d" stroke="#72000d"></path><path d="M769 510.4L818 463.7L774 457.1Z" fill="#0e051d" stroke="#0e051d"></path><path d="M851 292.9L800 296.9L786 338.6Z" fill="#6b0019" stroke="#6b0019"></path><path d="M721 600L744 587.3L710 576.3Z" fill="#570027" stroke="#570027"></path><path d="M802 159.3L764 197.6L785 225.4Z" fill="#570027" stroke="#570027"></path><path d="M802 159.3L785 225.4L848 167.4Z" fill="#6b0019" stroke="#6b0019"></path><path d="M265 0L233 50.9L304 55.7Z" fill="#4a012b" stroke="#4a012b"></path><path d="M192 136.4L142 127.4L188 184.6Z" fill="#230c29" stroke="#230c29"></path><path d="M193 599.1L232 549.3L181 529.4Z" fill="#3d072d" stroke="#3d072d"></path><path d="M193 599.1L206 600L232 549.3Z" fill="#620021" stroke="#620021"></path><path d="M341 600L128 637.1L473 656.1Z" fill="#180a24" stroke="#180a24"></path><path d="M223 50.9L228 51.7L233 50.9Z" fill="#300b2c" stroke="#300b2c"></path><path d="M233 50.9L228 51.7L257 75.7Z" fill="#180a24" stroke="#180a24"></path><path d="M785 225.4L790 241.3L883 206.3Z" fill="#0e051d" stroke="#0e051d"></path><path d="M757 637.1L738 600L721 600Z" fill="#4a012b" stroke="#4a012b"></path><path d="M721 600L738 600L744 587.3Z" fill="#6b0019" stroke="#6b0019"></path><path d="M744 587.3L765 600L769 510.4Z" fill="#0e051d" stroke="#0e051d"></path><path d="M265 0L223 50.9L233 50.9Z" fill="#72000d" stroke="#72000d"></path><path d="M228 51.7L223 50.9L257 75.7Z" fill="#230c29" stroke="#230c29"></path><path d="M851 292.9L786 338.6L849 401.9Z" fill="#000015" stroke="#000015"></path><path d="M814 277.1L846 283L810 265.3Z" fill="#000015" stroke="#000015"></path><path d="M679 0L660 7.7L728 74.4Z" fill="#4a012b" stroke="#4a012b"></path><path d="M728 74.4L660 7.7L643 86.6Z" fill="#620021" stroke="#620021"></path><path d="M223 50.9L170 104.6L240 129.6Z" fill="#3d072d" stroke="#3d072d"></path><path d="M312 9.9L294 0L304 55.7Z" fill="#230c29" stroke="#230c29"></path><path d="M296 -1.1L294 0L312 9.9Z" fill="#230c29" stroke="#230c29"></path><path d="M296 -1.1L312 9.9L337 0Z" fill="#620021" stroke="#620021"></path><path d="M557 -2.1L296 -1.1L446 0Z" fill="#0e051d" stroke="#0e051d"></path><path d="M849 401.9L786 338.6L811 404.6Z" fill="#620021" stroke="#620021"></path><path d="M848 167.4L822 119.9L802 159.3Z" fill="#000015" stroke="#000015"></path><path d="M140 583.1L193 599.1L181 529.4Z" fill="#180a24" stroke="#180a24"></path><path d="M206 600L128 637.1L341 600Z" fill="#72000d" stroke="#72000d"></path><path d="M818 463.7L849 401.9L811 404.6Z" fill="#230c29" stroke="#230c29"></path><path d="M102 180.1L179 224.3L180 211Z" fill="#620021" stroke="#620021"></path><path d="M109 306.3L82 307L135 325Z" fill="#72000d" stroke="#72000d"></path><path d="M119 110.4L142 127.4L121 90.4Z" fill="#0e051d" stroke="#0e051d"></path><path d="M170 104.6L142 127.4L192 136.4Z" fill="#3d072d" stroke="#3d072d"></path><path d="M67 294L83 296.1L90 279Z" fill="#300b2c" stroke="#300b2c"></path><path d="M90 279L83 296.1L109 306.3Z" fill="#3d072d" stroke="#3d072d"></path><path d="M83 296.1L82 307L109 306.3Z" fill="#72000d" stroke="#72000d"></path><path d="M75 459.4L130 529.3L139 465.6Z" fill="#4a012b" stroke="#4a012b"></path><path d="M139 465.6L130 529.3L181 529.4Z" fill="#570027" stroke="#570027"></path><path d="M822 119.9L784 99.6L802 159.3Z" fill="#570027" stroke="#570027"></path><path d="M802 159.3L784 99.6L746 118.7Z" fill="#3d072d" stroke="#3d072d"></path><path d="M754 95.9L774 66.9L728 74.4Z" fill="#4a012b" stroke="#4a012b"></path><path d="M294 0L265 0L304 55.7Z" fill="#72000d" stroke="#72000d"></path><path d="M223 50.9L161 68.9L170 104.6Z" fill="#620021" stroke="#620021"></path><path d="M296 -1.1L265 0L294 0Z" fill="#6b0019" stroke="#6b0019"></path><path d="M757 637.1L701 600L622 625.1Z" fill="#230c29" stroke="#230c29"></path><path d="M757 637.1L765 600L738 600Z" fill="#180a24" stroke="#180a24"></path><path d="M738 600L765 600L744 587.3Z" fill="#0e051d" stroke="#0e051d"></path><path d="M818 463.7L862 400.7L849 401.9Z" fill="#72000d" stroke="#72000d"></path><path d="M743 0L679 0L728 74.4Z" fill="#72000d" stroke="#72000d"></path><path d="M660 7.7L679 0L586 0Z" fill="#300b2c" stroke="#300b2c"></path><path d="M586 0L679 0L557 -2.1Z" fill="#6b0019" stroke="#6b0019"></path><path d="M900 502.4L862 400.7L818 463.7Z" fill="#180a24" stroke="#180a24"></path><path d="M849 401.9L900 342.6L851 292.9Z" fill="#3d072d" stroke="#3d072d"></path><path d="M142 127.4L102 180.1L188 184.6Z" fill="#3d072d" stroke="#3d072d"></path><path d="M784 99.6L774 66.9L754 95.9Z" fill="#620021" stroke="#620021"></path><path d="M818 95.4L774 66.9L784 99.6Z" fill="#6b0019" stroke="#6b0019"></path><path d="M83 296.1L67 294L82 307Z" fill="#4a012b" stroke="#4a012b"></path><path d="M46 428.3L75 459.4L146 349.7Z" fill="#620021" stroke="#620021"></path><path d="M53 263.3L67 294L90 279Z" fill="#300b2c" stroke="#300b2c"></path><path d="M102 180.1L88 199.6L179 224.3Z" fill="#0e051d" stroke="#0e051d"></path><path d="M177 0L161 68.9L223 50.9Z" fill="#72000d" stroke="#72000d"></path><path d="M142 127.4L119 110.4L102 180.1Z" fill="#180a24" stroke="#180a24"></path><path d="M0 151.4L-2 208.1L88 199.6Z" fill="#570027" stroke="#570027"></path><path d="M790 241.3L810 265.3L883 206.3Z" fill="#180a24" stroke="#180a24"></path><path d="M883 206.3L810 265.3L846 283Z" fill="#300b2c" stroke="#300b2c"></path><path d="M900 259.9L846 283L851 292.9Z" fill="#000015" stroke="#000015"></path><path d="M100 600L140 583.1L130 529.3Z" fill="#570027" stroke="#570027"></path><path d="M130 529.3L140 583.1L181 529.4Z" fill="#570027" stroke="#570027"></path><path d="M46 428.3L146 349.7L26 388.4Z" fill="#0e051d" stroke="#0e051d"></path><path d="M473 656.1L757 637.1L622 625.1Z" fill="#3d072d" stroke="#3d072d"></path><path d="M765 600L854 519.1L769 510.4Z" fill="#230c29" stroke="#230c29"></path><path d="M121 90.4L142 127.4L170 104.6Z" fill="#0e051d" stroke="#0e051d"></path><path d="M837 116.7L818 95.4L822 119.9Z" fill="#0e051d" stroke="#0e051d"></path><path d="M822 119.9L818 95.4L784 99.6Z" fill="#300b2c" stroke="#300b2c"></path><path d="M774 66.9L743 0L728 74.4Z" fill="#230c29" stroke="#230c29"></path><path d="M869 520.4L854 519.1L900 557.1Z" fill="#6b0019" stroke="#6b0019"></path><path d="M88 199.6L53 263.3L90 279Z" fill="#620021" stroke="#620021"></path><path d="M67 294L39 302.9L82 307Z" fill="#570027" stroke="#570027"></path><path d="M39 302.9L53 263.3L0 259.3Z" fill="#3d072d" stroke="#3d072d"></path><path d="M848 167.4L837 116.7L822 119.9Z" fill="#3d072d" stroke="#3d072d"></path><path d="M161 68.9L121 90.4L170 104.6Z" fill="#72000d" stroke="#72000d"></path><path d="M0 243L53 263.3L-2 208.1Z" fill="#72000d" stroke="#72000d"></path><path d="M119 46.6L121 90.4L161 68.9Z" fill="#230c29" stroke="#230c29"></path><path d="M916 489.3L900 342.6L862 400.7Z" fill="#570027" stroke="#570027"></path><path d="M862 400.7L900 342.6L849 401.9Z" fill="#620021" stroke="#620021"></path><path d="M848 167.4L900 138.7L837 116.7Z" fill="#0e051d" stroke="#0e051d"></path><path d="M900 342.6L900 321L851 292.9Z" fill="#6b0019" stroke="#6b0019"></path><path d="M900 321L900 300.7L851 292.9Z" fill="#230c29" stroke="#230c29"></path><path d="M900 259.9L883 206.3L846 283Z" fill="#570027" stroke="#570027"></path><path d="M783 0L774 66.9L814 30.9Z" fill="#620021" stroke="#620021"></path><path d="M783 0L743 0L774 66.9Z" fill="#72000d" stroke="#72000d"></path><path d="M679 0L900 -6.1L557 -2.1Z" fill="#620021" stroke="#620021"></path><path d="M53 263.3L39 302.9L67 294Z" fill="#0e051d" stroke="#0e051d"></path><path d="M26 388.4L146 349.7L82 307Z" fill="#72000d" stroke="#72000d"></path><path d="M98 600L100 600L130 529.3Z" fill="#6b0019" stroke="#6b0019"></path><path d="M900 300.7L900 259.9L851 292.9Z" fill="#180a24" stroke="#180a24"></path><path d="M900 522.3L869 520.4L900 557.1Z" fill="#300b2c" stroke="#300b2c"></path><path d="M854 519.1L900 502.4L818 463.7Z" fill="#230c29" stroke="#230c29"></path><path d="M109 -6.1L177 0L265 0Z" fill="#72000d" stroke="#72000d"></path><path d="M265 0L177 0L223 50.9Z" fill="#300b2c" stroke="#300b2c"></path><path d="M883 206.3L891 180.7L848 167.4Z" fill="#620021" stroke="#620021"></path><path d="M814 30.9L774 66.9L818 95.4Z" fill="#620021" stroke="#620021"></path><path d="M900 206.1L891 180.7L883 206.3Z" fill="#300b2c" stroke="#300b2c"></path><path d="M900 259.9L900 207.6L883 206.3Z" fill="#570027" stroke="#570027"></path><path d="M900 207.6L900 207.4L883 206.3Z" fill="#4a012b" stroke="#4a012b"></path><path d="M900 207.4L900 206.1L883 206.3Z" fill="#72000d" stroke="#72000d"></path><path d="M39 302.9L26 388.4L82 307Z" fill="#0e051d" stroke="#0e051d"></path><path d="M109 -6.1L168 0L177 0Z" fill="#180a24" stroke="#180a24"></path><path d="M177 0L168 0L161 68.9Z" fill="#300b2c" stroke="#300b2c"></path><path d="M130 529.3L75 459.4L35 484.3Z" fill="#230c29" stroke="#230c29"></path><path d="M98 600L130 529.3L35 484.3Z" fill="#300b2c" stroke="#300b2c"></path><path d="M140 583.1L128 637.1L193 599.1Z" fill="#300b2c" stroke="#300b2c"></path><path d="M193 599.1L128 637.1L206 600Z" fill="#230c29" stroke="#230c29"></path><path d="M168 0L119 46.6L161 68.9Z" fill="#0e051d" stroke="#0e051d"></path><path d="M53 263.3L88 199.6L-2 208.1Z" fill="#300b2c" stroke="#300b2c"></path><path d="M0 325.1L4 344.7L39 302.9Z" fill="#300b2c" stroke="#300b2c"></path><path d="M100 600L128 637.1L140 583.1Z" fill="#4a012b" stroke="#4a012b"></path><path d="M35 484.3L75 459.4L46 428.3Z" fill="#620021" stroke="#620021"></path><path d="M100 600L98 600L128 637.1Z" fill="#4a012b" stroke="#4a012b"></path><path d="M814 30.9L818 95.4L900 117.3Z" fill="#000015" stroke="#000015"></path><path d="M743 0L900 -6.1L679 0Z" fill="#620021" stroke="#620021"></path><path d="M900 117.3L818 95.4L837 116.7Z" fill="#4a012b" stroke="#4a012b"></path><path d="M900 522.3L900 502.4L869 520.4Z" fill="#3d072d" stroke="#3d072d"></path><path d="M869 520.4L900 502.4L854 519.1Z" fill="#570027" stroke="#570027"></path><path d="M14 451.6L35 484.3L46 428.3Z" fill="#72000d" stroke="#72000d"></path><path d="M814 30.9L787 0L783 0Z" fill="#620021" stroke="#620021"></path><path d="M783 0L900 -6.1L743 0Z" fill="#0e051d" stroke="#0e051d"></path><path d="M0 416.9L18 426.7L26 388.4Z" fill="#0e051d" stroke="#0e051d"></path><path d="M26 388.4L18 426.7L46 428.3Z" fill="#4a012b" stroke="#4a012b"></path><path d="M39 302.9L4 344.7L26 388.4Z" fill="#180a24" stroke="#180a24"></path><path d="M0 325.1L39 302.9L0 259.3Z" fill="#3d072d" stroke="#3d072d"></path><path d="M836 633.1L854 519.1L765 600Z" fill="#230c29" stroke="#230c29"></path><path d="M473 656.1L836 633.1L757 637.1Z" fill="#570027" stroke="#570027"></path><path d="M757 637.1L836 633.1L765 600Z" fill="#6b0019" stroke="#6b0019"></path><path d="M900 522.3L916 489.3L900 502.4Z" fill="#4a012b" stroke="#4a012b"></path><path d="M900 502.4L916 489.3L862 400.7Z" fill="#0e051d" stroke="#0e051d"></path><path d="M900 342.6L916 489.3L900 321Z" fill="#570027" stroke="#570027"></path><path d="M900 321L916 489.3L900 300.7Z" fill="#4a012b" stroke="#4a012b"></path><path d="M900 300.7L916 489.3L900 259.9Z" fill="#6b0019" stroke="#6b0019"></path><path d="M900 259.9L916 489.3L900 207.6Z" fill="#620021" stroke="#620021"></path><path d="M900 207.6L916 489.3L900 207.4Z" fill="#620021" stroke="#620021"></path><path d="M900 207.4L916 489.3L900 206.1Z" fill="#72000d" stroke="#72000d"></path><path d="M0 259.3L53 263.3L0 243Z" fill="#620021" stroke="#620021"></path><path d="M0 427.7L14 451.6L18 426.7Z" fill="#300b2c" stroke="#300b2c"></path><path d="M0 370.6L26 388.4L4 344.7Z" fill="#0e051d" stroke="#0e051d"></path><path d="M18 426.7L14 451.6L46 428.3Z" fill="#4a012b" stroke="#4a012b"></path><path d="M35 484.3L-11 537.4L98 600Z" fill="#300b2c" stroke="#300b2c"></path><path d="M900 206.1L900 138.7L891 180.7Z" fill="#570027" stroke="#570027"></path><path d="M891 180.7L900 138.7L848 167.4Z" fill="#6b0019" stroke="#6b0019"></path><path d="M916 489.3L900 138.7L900 206.1Z" fill="#300b2c" stroke="#300b2c"></path><path d="M-13 359.6L0 370.6L4 344.7Z" fill="#4a012b" stroke="#4a012b"></path><path d="M0 370.6L0 390.4L26 388.4Z" fill="#3d072d" stroke="#3d072d"></path><path d="M845 0L807 0L814 30.9Z" fill="#0e051d" stroke="#0e051d"></path><path d="M814 30.9L807 0L787 0Z" fill="#620021" stroke="#620021"></path><path d="M787 0L900 -6.1L783 0Z" fill="#620021" stroke="#620021"></path><path d="M102 180.1L0 151.4L88 199.6Z" fill="#620021" stroke="#620021"></path><path d="M0 390.4L0 416.9L26 388.4Z" fill="#570027" stroke="#570027"></path><path d="M0 416.9L0 427.7L18 426.7Z" fill="#620021" stroke="#620021"></path><path d="M14 451.6L0 482.1L35 484.3Z" fill="#4a012b" stroke="#4a012b"></path><path d="M102 180.1L119 110.4L40 102.4Z" fill="#300b2c" stroke="#300b2c"></path><path d="M916 489.3L900 117.3L900 138.7Z" fill="#620021" stroke="#620021"></path><path d="M900 138.7L900 117.3L837 116.7Z" fill="#72000d" stroke="#72000d"></path><path d="M900 522.3L900 557.1L916 489.3Z" fill="#570027" stroke="#570027"></path><path d="M836 633.1L900 557.1L854 519.1Z" fill="#4a012b" stroke="#4a012b"></path><path d="M0 390.4L-13 359.6L0 416.9Z" fill="#4a012b" stroke="#4a012b"></path><path d="M0 416.9L-13 359.6L0 427.7Z" fill="#230c29" stroke="#230c29"></path><path d="M0 370.6L-13 359.6L0 390.4Z" fill="#180a24" stroke="#180a24"></path><path d="M0 325.1L-13 359.6L4 344.7Z" fill="#6b0019" stroke="#6b0019"></path><path d="M-53 288.9L-13 359.6L0 325.1Z" fill="#0e051d" stroke="#0e051d"></path><path d="M-53 288.9L0 325.1L0 259.3Z" fill="#180a24" stroke="#180a24"></path><path d="M40 102.4L119 110.4L121 90.4Z" fill="#6b0019" stroke="#6b0019"></path><path d="M0 243L-53 288.9L0 259.3Z" fill="#0e051d" stroke="#0e051d"></path><path d="M49 64.7L121 90.4L119 46.6Z" fill="#230c29" stroke="#230c29"></path><path d="M49 64.7L40 102.4L121 90.4Z" fill="#0e051d" stroke="#0e051d"></path><path d="M109 -6.1L93 23.7L119 46.6Z" fill="#4a012b" stroke="#4a012b"></path><path d="M-11 537.4L0 482.1L-53 288.9Z" fill="#6b0019" stroke="#6b0019"></path><path d="M0 427.7L0 482.1L14 451.6Z" fill="#300b2c" stroke="#300b2c"></path><path d="M98 600L67 655.1L128 637.1Z" fill="#3d072d" stroke="#3d072d"></path><path d="M-11 537.4L0 490.3L0 482.1Z" fill="#620021" stroke="#620021"></path><path d="M0 482.1L0 490.3L35 484.3Z" fill="#6b0019" stroke="#6b0019"></path><path d="M296 -1.1L109 -6.1L265 0Z" fill="#6b0019" stroke="#6b0019"></path><path d="M168 0L109 -6.1L119 46.6Z" fill="#620021" stroke="#620021"></path><path d="M93 23.7L49 64.7L119 46.6Z" fill="#000015" stroke="#000015"></path><path d="M557 -2.1L109 -6.1L296 -1.1Z" fill="#620021" stroke="#620021"></path><path d="M900 -6.1L109 -6.1L557 -2.1Z" fill="#620021" stroke="#620021"></path><path d="M0 4.9L49 64.7L93 23.7Z" fill="#6b0019" stroke="#6b0019"></path><path d="M40 102.4L0 151.4L102 180.1Z" fill="#230c29" stroke="#230c29"></path><path d="M900 0L845 0L814 30.9Z" fill="#000015" stroke="#000015"></path><path d="M807 0L900 -6.1L787 0Z" fill="#570027" stroke="#570027"></path><path d="M109 -6.1L97 0L93 23.7Z" fill="#180a24" stroke="#180a24"></path><path d="M836 633.1L900 600L900 557.1Z" fill="#620021" stroke="#620021"></path><path d="M900 557.1L900 600L916 489.3Z" fill="#570027" stroke="#570027"></path><path d="M0 150.7L0 151.4L40 102.4Z" fill="#620021" stroke="#620021"></path><path d="M-2 208.1L-53 288.9L0 243Z" fill="#72000d" stroke="#72000d"></path><path d="M0 86.6L0 150.7L40 102.4Z" fill="#620021" stroke="#620021"></path><path d="M0 151.4L-53 288.9L-2 208.1Z" fill="#72000d" stroke="#72000d"></path><path d="M0 600L67 655.1L98 600Z" fill="#6b0019" stroke="#6b0019"></path><path d="M128 637.1L67 655.1L473 656.1Z" fill="#000015" stroke="#000015"></path><path d="M-53 288.9L0 482.1L0 427.7Z" fill="#0e051d" stroke="#0e051d"></path><path d="M0 490.3L-11 537.4L35 484.3Z" fill="#3d072d" stroke="#3d072d"></path><path d="M0 150.7L-53 288.9L0 151.4Z" fill="#6b0019" stroke="#6b0019"></path><path d="M-13 359.6L-53 288.9L0 427.7Z" fill="#0e051d" stroke="#0e051d"></path><path d="M9 63.7L0 86.6L40 102.4Z" fill="#000015" stroke="#000015"></path><path d="M0 150.7L0 86.6L-53 288.9Z" fill="#4a012b" stroke="#4a012b"></path><path d="M9 63.7L40 102.4L49 64.7Z" fill="#180a24" stroke="#180a24"></path><path d="M0 4.9L9 63.7L49 64.7Z" fill="#72000d" stroke="#72000d"></path><path d="M-11 537.4L0 600L98 600Z" fill="#3d072d" stroke="#3d072d"></path><path d="M-10 600L-5 600L-11 537.4Z" fill="#3d072d" stroke="#3d072d"></path><path d="M-11 537.4L-5 600L0 600Z" fill="#230c29" stroke="#230c29"></path><path d="M0 600L-5 600L67 655.1Z" fill="#000015" stroke="#000015"></path><path d="M916 489.3L900 0L900 117.3Z" fill="#180a24" stroke="#180a24"></path><path d="M900 117.3L900 0L814 30.9Z" fill="#620021" stroke="#620021"></path><path d="M845 0L900 -6.1L807 0Z" fill="#0e051d" stroke="#0e051d"></path><path d="M916 489.3L900 -6.1L900 0Z" fill="#6b0019" stroke="#6b0019"></path><path d="M900 0L900 -6.1L845 0Z" fill="#000015" stroke="#000015"></path><path d="M-53 288.9L-10 600L-11 537.4Z" fill="#0e051d" stroke="#0e051d"></path><path d="M-5 600L-10 600L67 655.1Z" fill="#230c29" stroke="#230c29"></path><path d="M1 0L0 4.9L93 23.7Z" fill="#180a24" stroke="#180a24"></path><path d="M9 63.7L0 4.9L0 86.6Z" fill="#570027" stroke="#570027"></path><path d="M0 86.6L0 4.9L-53 288.9Z" fill="#0e051d" stroke="#0e051d"></path><path d="M1 0L93 23.7L97 0Z" fill="#6b0019" stroke="#6b0019"></path><path d="M109 -6.1L1 0L97 0Z" fill="#230c29" stroke="#230c29"></path><path d="M109 -6.1L0 0L1 0Z" fill="#4a012b" stroke="#4a012b"></path><path d="M1 0L0 0L0 4.9Z" fill="#230c29" stroke="#230c29"></path><path d="M0 4.9L0 0L-53 288.9Z" fill="#570027" stroke="#570027"></path></g></svg>